<svg version="1.1" xmlns="http://www.w3.org/2000/svg" xmlns:xlink="http://www.w3.org/1999/xlink" width="528" height="436.54915" viewBox="0,0,528,436.54915"><g transform="translate(44,40.54915)"><g data-paper-data="{&quot;isPaintingLayer&quot;:true}" fill="none" fill-rule="none" stroke="none" stroke-width="none" stroke-linecap="none" stroke-linejoin="none" stroke-miterlimit="10" stroke-dasharray="" stroke-dashoffset="0" font-family="none" font-weight="none" font-size="none" text-anchor="none" style="mix-blend-mode: normal"><path d="M259.8326,-30.55243c0,0 0.73189,0.74532 1.37669,0.7158c0.64479,-0.02951 1.26798,-0.83683 1.26798,-0.83683c0,0 4.49435,-5.31832 7.73521,-9.0179c0.79157,-0.90361 2.60035,-1.26134 3.56829,-0.23427c0.96794,1.02707 0.70833,2.77388 0.05802,3.73772c-0.65032,0.96384 -8.3747,9.66009 -9.28626,10.57656c-0.91156,0.91647 -1.99373,1.60584 -3.22503,1.68948c-1.2313,0.08364 -2.54031,-0.67273 -3.46932,-1.48417c-0.929,-0.81144 -10.38103,-10.00381 -10.38103,-10.00381c-0.93039,-0.92117 -1.1855,-2.57336 -0.25295,-3.73869c0.93255,-1.16532 2.61999,-1.02699 3.42958,-0.23084z" data-paper-data="{&quot;origPos&quot;:null,&quot;origRot&quot;:0,&quot;index&quot;:null}" fill="#000000" fill-rule="evenodd" stroke-width="1" stroke-linecap="round" stroke-linejoin="round" opacity="0.42445"/><path d="M260.3035,-11.32009c0,0 0.73189,0.74532 1.37669,0.7158c0.64479,-0.02951 1.26798,-0.83683 1.26798,-0.83683c0,0 4.49435,-5.31832 7.73521,-9.0179c0.79157,-0.90361 2.60035,-1.26135 3.56829,-0.23427c0.96794,1.02707 0.70833,2.77389 0.05802,3.73773c-0.65032,0.96384 -8.3747,9.66009 -9.28626,10.57656c-0.91156,0.91647 -1.99373,1.60584 -3.22503,1.68948c-1.2313,0.08364 -2.54031,-0.67273 -3.46932,-1.48417c-0.929,-0.81144 -10.38103,-10.00381 -10.38103,-10.00381c-0.93039,-0.92117 -1.1855,-2.57336 -0.25295,-3.73868c0.93255,-1.16532 2.61999,-1.02699 3.42958,-0.23084z" data-paper-data="{&quot;origPos&quot;:null,&quot;origRot&quot;:0,&quot;index&quot;:null}" fill="#000000" fill-rule="evenodd" stroke-width="1" stroke-linecap="round" stroke-linejoin="round" opacity="0.42445"/><path d="M260.77441,7.91226c0,0 0.73189,0.74532 1.37669,0.7158c0.64479,-0.02951 1.26798,-0.83683 1.26798,-0.83683c0,0 4.49435,-5.31832 7.73521,-9.0179c0.79157,-0.90361 2.60035,-1.26135 3.56829,-0.23427c0.96794,1.02707 0.70833,2.77389 0.05802,3.73773c-0.65032,0.96384 -8.3747,9.66009 -9.28626,10.57656c-0.91156,0.91647 -1.99373,1.60584 -3.22503,1.68948c-1.2313,0.08364 -2.54031,-0.67273 -3.46932,-1.48417c-0.929,-0.81144 -10.38103,-10.00381 -10.38103,-10.00381c-0.93039,-0.92117 -1.1855,-2.57336 -0.25295,-3.73869c0.93255,-1.16532 2.61999,-1.02699 3.42958,-0.23084z" data-paper-data="{&quot;origPos&quot;:null,&quot;origRot&quot;:0,&quot;index&quot;:null}" fill="#000000" fill-rule="evenodd" stroke-width="1" stroke-linecap="round" stroke-linejoin="round" opacity="0.42445"/><path d="M-44,396v-399h528v399z" data-paper-data="{&quot;origPos&quot;:null}" fill="none" fill-rule="nonzero" stroke-width="NaN" stroke-linecap="butt" stroke-linejoin="miter"/></g></g></svg>