<svg version="1.1" xmlns="http://www.w3.org/2000/svg" xmlns:xlink="http://www.w3.org/1999/xlink" width="531" height="470"><g transform="translate(52.99998,1)"><g data-paper-data="{&quot;isPaintingLayer&quot;:true}" fill="none" fill-rule="nonzero" stroke="none" stroke-width="none" stroke-linecap="none" stroke-linejoin="miter" stroke-miterlimit="10" stroke-dasharray="" stroke-dashoffset="0" font-family="none" font-weight="none" font-size="none" text-anchor="none" style="mix-blend-mode: normal"><path d="M-52.99998,469v-470h531v470z" fill="none" stroke="none" stroke-width="NaN" stroke-linecap="butt"/><g data-paper-data="{&quot;origPos&quot;:null}" fill="#c00000" stroke="#a60000" stroke-width="1.5" stroke-linecap="round"><g data-paper-data="{&quot;origPos&quot;:null}"><path d="M75.72727,26.51298l6.47364,-14.63858l6.53195,14.46362" data-paper-data="{&quot;origPos&quot;:null,&quot;origRot&quot;:0}"/><path d="M89.12728,26.51298l6.47364,-14.63858l6.53195,14.46362" data-paper-data="{&quot;origPos&quot;:null,&quot;origRot&quot;:0}"/><path d="M102.12728,26.51298l6.47364,-14.63858l6.53195,14.46362" data-paper-data="{&quot;origPos&quot;:null,&quot;origRot&quot;:0}"/></g><g data-paper-data="{&quot;origPos&quot;:null}"><path d="M113.72728,26.51298l6.47364,-14.63858l6.53195,14.46362" data-paper-data="{&quot;origPos&quot;:null,&quot;origRot&quot;:0}"/><path d="M127.12728,26.51298l6.47364,-14.63858l6.53195,14.46362" data-paper-data="{&quot;origPos&quot;:null,&quot;origRot&quot;:0}"/><path d="M140.12728,26.51298l6.47364,-14.63858l6.53195,14.46362" data-paper-data="{&quot;origPos&quot;:null,&quot;origRot&quot;:0}"/></g></g><g data-paper-data="{&quot;origPos&quot;:null}" fill="#c00000" stroke="#a60000" stroke-width="1.5" stroke-linecap="round"><g data-paper-data="{&quot;origPos&quot;:null}"><path d="M245.72728,27.51298l6.47364,-14.63858l6.53195,14.46362" data-paper-data="{&quot;origPos&quot;:null,&quot;origRot&quot;:0}"/><path d="M259.12728,27.51298l6.47364,-14.63858l6.53195,14.46362" data-paper-data="{&quot;origPos&quot;:null,&quot;origRot&quot;:0}"/><path d="M272.12728,27.51298l6.47364,-14.63858l6.53195,14.46362" data-paper-data="{&quot;origPos&quot;:null,&quot;origRot&quot;:0}"/></g><g data-paper-data="{&quot;origPos&quot;:null}"><path d="M283.72728,27.51298l6.47364,-14.63858l6.53195,14.46362" data-paper-data="{&quot;origPos&quot;:null,&quot;origRot&quot;:0}"/><path d="M297.12728,27.51298l6.47364,-14.63858l6.53195,14.46362" data-paper-data="{&quot;origPos&quot;:null,&quot;origRot&quot;:0}"/><path d="M310.12728,27.51298l6.47364,-14.63858l6.53195,14.46362" data-paper-data="{&quot;origPos&quot;:null,&quot;origRot&quot;:0}"/></g></g></g></g></svg>