<svg version="1.1" xmlns="http://www.w3.org/2000/svg" xmlns:xlink="http://www.w3.org/1999/xlink" width="51.76716" height="35.91103"><g transform="translate(-213.6517,-159.56636)"><g data-paper-data="{&quot;isPaintingLayer&quot;:true}" fill="none" fill-rule="none" stroke="none" stroke-width="none" stroke-linecap="none" stroke-linejoin="none" stroke-miterlimit="10" stroke-dasharray="" stroke-dashoffset="0" font-family="none" font-weight="none" font-size="none" text-anchor="none" style="mix-blend-mode: normal"><path d="" fill="#ff5e87" fill-rule="nonzero" stroke="none" stroke-width="0.5" stroke-linecap="butt" stroke-linejoin="miter"/><path d="" fill="#a20b7b" fill-rule="nonzero" stroke="none" stroke-width="0.5" stroke-linecap="butt" stroke-linejoin="miter"/><path d="" fill="#fff3d5" fill-rule="nonzero" stroke="none" stroke-width="0.5" stroke-linecap="butt" stroke-linejoin="miter"/><path d="" data-paper-data="{&quot;origPos&quot;:null}" fill="#000000" fill-rule="evenodd" stroke="none" stroke-width="1" stroke-linecap="round" stroke-linejoin="round"/><g data-paper-data="{&quot;origPos&quot;:null}" stroke-linecap="round"><path d="M228.98898,181.67398l-12.33728,0.175" data-paper-data="{&quot;origPos&quot;:null,&quot;origRot&quot;:0}" fill="none" fill-rule="nonzero" stroke="#ed0000" stroke-width="6" stroke-linejoin="miter"/><path d="M234.70211,159.65664v0c1.95766,0 3.29265,1.65346 3.29265,3.26261c0,0 0,8.31899 0,13.86682c0,6.06386 0,14.84013 0,14.84013c0,1.60913 -1.02678,3.61149 -2.98442,3.61149h-0.11208c-1.95766,0 -3.09651,-2.00234 -3.09651,-3.61149l-0.20692,-28.34489c0,-1.60913 1.14964,-3.62472 3.10728,-3.62472z" data-paper-data="{&quot;origPos&quot;:null}" fill="#ff0000" fill-rule="evenodd" stroke="none" stroke-width="1" stroke-linejoin="round"/><path d="M222.65162,173.92142c-1.10453,-1.24388 -0.84298,-3.5872 0.35083,-4.67934c0,0 5.84026,-5.24987 9.93058,-8.99185c0.50265,0.6853 0.82724,1.46075 1.42227,2.09809c1.04677,1.12126 1.17716,1.77129 2.38638,2.62172l-9.26362,8.52953c-1.19379,1.09214 -3.52018,1.71057 -4.71435,0.46672z" data-paper-data="{&quot;origPos&quot;:null,&quot;origRot&quot;:0}" fill="#ff0000" fill-rule="evenodd" stroke="none" stroke-width="1" stroke-linejoin="round"/><path d="M265.41886,176.91664v1.21048c0,11.4996 -6.27247,17.35028 -12.58942,17.35028c-6.22798,0 -12.54494,-5.85067 -12.54494,-17.35028v-1.21048c0,-11.4996 6.31696,-17.35028 12.54494,-17.35028c6.31696,0 12.58942,5.85067 12.58942,17.35028zM246.08241,176.91664v1.21048c0,5.39674 1.76464,11.42674 6.74702,11.42674c5.02687,0 7.17062,-6.03 7.17062,-11.42674v-1.21048c0,-5.34631 -2.14375,-11.25303 -7.17062,-11.25303c-4.98239,0 -6.74702,5.90672 -6.74702,11.25303z" data-paper-data="{&quot;origPos&quot;:null}" fill="#ff0000" fill-rule="evenodd" stroke="none" stroke-width="1" stroke-linejoin="round"/></g></g></g></svg>