<svg version="1.1" xmlns="http://www.w3.org/2000/svg" xmlns:xlink="http://www.w3.org/1999/xlink" width="528" height="399"><g transform="translate(44,3)"><g data-paper-data="{&quot;isPaintingLayer&quot;:true}" fill="none" fill-rule="none" stroke="none" stroke-width="none" stroke-linecap="none" stroke-linejoin="none" stroke-miterlimit="10" stroke-dasharray="" stroke-dashoffset="0" font-family="none" font-weight="none" font-size="none" text-anchor="none" style="mix-blend-mode: normal"><path d="M182.97125,201.38658c0,0 1.04257,-0.06495 1.44256,-0.57155c0.39999,-0.50659 0.19806,-1.50626 0.19806,-1.50626c0,0 -1.07551,-6.87946 -1.7487,-11.75151c-0.16442,-1.18998 0.74987,-2.79115 2.15995,-2.84995c1.41008,-0.0588 2.5601,1.28142 2.86255,2.4041c0.30245,1.12269 1.81518,12.65536 1.91074,13.94444c0.09556,1.28908 -0.09224,2.55835 -0.83545,3.54361c-0.74321,0.98526 -2.1721,1.47909 -3.39373,1.6497c-1.22163,0.1706 -14.35862,1.29303 -14.35862,1.29303c-1.30546,0.09978 -2.72108,-0.7895 -2.99095,-2.25743c-0.26986,-1.46792 0.93983,-2.65251 2.07169,-2.74288z" data-paper-data="{&quot;origPos&quot;:null,&quot;origRot&quot;:0,&quot;index&quot;:null}" fill="#000000" fill-rule="evenodd" stroke-width="1" stroke-linecap="round" stroke-linejoin="round" opacity="0.42445"/><path d="M197.81332,213.62657c0,0 1.04257,-0.06495 1.44256,-0.57155c0.39999,-0.50659 0.19806,-1.50626 0.19806,-1.50626c0,0 -1.07551,-6.87946 -1.7487,-11.75151c-0.16442,-1.18998 0.74986,-2.79115 2.15995,-2.84995c1.41008,-0.0588 2.56011,1.28143 2.86256,2.40411c0.30245,1.12269 1.81518,12.65536 1.91074,13.94444c0.09556,1.28908 -0.09224,2.55835 -0.83545,3.54361c-0.74321,0.98526 -2.1721,1.47909 -3.39373,1.6497c-1.22163,0.1706 -14.35862,1.29303 -14.35862,1.29303c-1.30546,0.09978 -2.72108,-0.7895 -2.99094,-2.25742c-0.26986,-1.46792 0.93983,-2.65251 2.07169,-2.74288z" data-paper-data="{&quot;origPos&quot;:null,&quot;origRot&quot;:0,&quot;index&quot;:null}" fill="#000000" fill-rule="evenodd" stroke-width="1" stroke-linecap="round" stroke-linejoin="round" opacity="0.42445"/><path d="M212.65542,225.86656c0,0 1.04257,-0.06495 1.44256,-0.57155c0.39999,-0.50659 0.19806,-1.50626 0.19806,-1.50626c0,0 -1.07551,-6.87946 -1.7487,-11.75151c-0.16442,-1.18998 0.74986,-2.79115 2.15995,-2.84995c1.41008,-0.0588 2.56011,1.28143 2.86256,2.40411c0.30245,1.12269 1.81518,12.65536 1.91074,13.94444c0.09556,1.28908 -0.09224,2.55835 -0.83545,3.54361c-0.74321,0.98526 -2.1721,1.47909 -3.39373,1.6497c-1.22163,0.1706 -14.35862,1.29303 -14.35862,1.29303c-1.30546,0.09978 -2.72108,-0.7895 -2.99095,-2.25743c-0.26986,-1.46792 0.93983,-2.65251 2.07169,-2.74288z" data-paper-data="{&quot;origPos&quot;:null,&quot;origRot&quot;:0,&quot;index&quot;:null}" fill="#000000" fill-rule="evenodd" stroke-width="1" stroke-linecap="round" stroke-linejoin="round" opacity="0.42445"/><g data-paper-data="{&quot;origPos&quot;:null}" fill-rule="nonzero" stroke-linecap="butt" stroke-linejoin="miter"><path d="M174.12233,327.73105l7.17272,-34.46491h6.45545l6.63476,34.46491z" data-paper-data="{&quot;origPos&quot;:null}" fill="#ff8c26" stroke-width="NaN"/><path d="M173.7637,327.73105l1.64193,-6.09681h17.87878l1.45949,6.09681z" data-paper-data="{&quot;origPos&quot;:null}" fill="#ffffff" stroke-width="0"/><path d="M176.52519,315.89606l1.26458,-6.09681h13.16817l1.13204,6.09681z" data-paper-data="{&quot;origPos&quot;:null}" fill="#ffffff" stroke-width="0"/><path d="M178.96392,304.34799l1.25908,-6.09681h8.51068l1.16864,6.09681z" data-paper-data="{&quot;origPos&quot;:null}" fill="#ffffff" stroke-width="0"/><path d="M170.73547,330.71666v-3.5236h27.16667v3.5236z" data-paper-data="{&quot;origPos&quot;:null}" fill="#ff9e26" stroke-width="0"/></g><g data-paper-data="{&quot;origPos&quot;:null}" fill-rule="nonzero" stroke-linecap="butt" stroke-linejoin="miter"><path d="M270.12233,327.73105l7.17272,-34.46491h6.45545l6.63476,34.46491z" data-paper-data="{&quot;origPos&quot;:null}" fill="#ff8c26" stroke-width="NaN"/><path d="M269.7637,327.73105l1.64193,-6.09681h17.87878l1.45949,6.09681z" data-paper-data="{&quot;origPos&quot;:null}" fill="#ffffff" stroke-width="0"/><path d="M272.52519,315.89606l1.26458,-6.09681h13.16817l1.13204,6.09681z" data-paper-data="{&quot;origPos&quot;:null}" fill="#ffffff" stroke-width="0"/><path d="M274.96392,304.34799l1.25908,-6.09681h8.51068l1.16864,6.09681z" data-paper-data="{&quot;origPos&quot;:null}" fill="#ffffff" stroke-width="0"/><path d="M266.73547,330.71666v-3.5236h27.16667v3.5236z" data-paper-data="{&quot;origPos&quot;:null}" fill="#ff9e26" stroke-width="0"/></g><g data-paper-data="{&quot;origPos&quot;:null}" fill-rule="nonzero" stroke-linecap="butt" stroke-linejoin="miter"><path d="M458.12233,326.73105l7.17272,-34.46491h6.45545l6.63476,34.46491z" data-paper-data="{&quot;origPos&quot;:null}" fill="#ff8c26" stroke-width="NaN"/><path d="M457.7637,326.73105l1.64193,-6.09681h17.87878l1.45949,6.09681z" data-paper-data="{&quot;origPos&quot;:null}" fill="#ffffff" stroke-width="0"/><path d="M460.52519,314.89606l1.26458,-6.09681h13.16817l1.13204,6.09681z" data-paper-data="{&quot;origPos&quot;:null}" fill="#ffffff" stroke-width="0"/><path d="M462.96392,303.34799l1.25908,-6.09681h8.51068l1.16864,6.09681z" data-paper-data="{&quot;origPos&quot;:null}" fill="#ffffff" stroke-width="0"/><path d="M454.73547,329.71666v-3.5236h27.16667v3.5236z" data-paper-data="{&quot;origPos&quot;:null}" fill="#ff9e26" stroke-width="0"/></g><path d="M-44,396v-399h528v399z" data-paper-data="{&quot;origPos&quot;:null}" fill="none" fill-rule="nonzero" stroke-width="NaN" stroke-linecap="butt" stroke-linejoin="miter"/></g></g></svg>