<svg version="1.1" xmlns="http://www.w3.org/2000/svg" xmlns:xlink="http://www.w3.org/1999/xlink" width="486" height="368"><g transform="translate(4,5)"><g data-paper-data="{&quot;isPaintingLayer&quot;:true}" fill="none" fill-rule="nonzero" stroke="none" stroke-width="none" stroke-linecap="none" stroke-linejoin="miter" stroke-miterlimit="10" stroke-dasharray="" stroke-dashoffset="0" font-family="none" font-weight="none" font-size="none" text-anchor="none" style="mix-blend-mode: normal"><path d="M-4,363v-368h486v368z" data-paper-data="{&quot;origPos&quot;:null}" fill="#08a8ff" stroke="none" stroke-width="0" stroke-linecap="butt"/><g data-paper-data="{&quot;origPos&quot;:null}"><path d="" data-paper-data="{&quot;origPos&quot;:null}" fill="#ff5e87" stroke="none" stroke-width="7" stroke-linecap="butt"/><path d="" data-paper-data="{&quot;origPos&quot;:null}" fill="#a20b7b" stroke="none" stroke-width="7" stroke-linecap="butt"/><path d="" data-paper-data="{&quot;origPos&quot;:null}" fill="#fff3d5" stroke="none" stroke-width="7" stroke-linecap="butt"/><g data-paper-data="{&quot;origPos&quot;:null}"><path d="M253.3706,243.8745c-37.04352,0 -67.07321,-31.00039 -67.07321,-69.24126c0,-38.24087 30.02968,-69.24124 67.07321,-69.24124c37.04352,0 67.07323,31.00036 67.07323,69.24124c0,38.24089 -30.02971,69.24126 -67.07323,69.24126z" data-paper-data="{&quot;origPos&quot;:null}" fill="#4d73d1" stroke="#0b3aa3" stroke-width="7" stroke-linecap="butt"/><path d="M316.78529,174.4404c0,32.97073 -26.38972,59.69884 -58.94311,59.69884c-32.55339,0 -58.94313,-26.72806 -58.94313,-59.69884c0,-24.8646 4.74598,-43.31628 25.30078,-57.30732c10.15541,-6.91247 20.1381,-6.45655 32.42287,-6.45655c32.55339,0 60.16266,30.7931 60.16266,63.76386z" data-paper-data="{&quot;origPos&quot;:null}" fill="#5e8dff" stroke="none" stroke-width="7" stroke-linecap="butt"/><path d="M274.10913,129.86733c0,0 5.85214,3.85332 8.70562,6.96184c1.84944,2.01473 3.40029,3.39941 4.8636,5.70987c1.69063,2.66938 3.35537,6.94014 3.35537,6.94014" data-paper-data="{&quot;origPos&quot;:null}" fill="none" stroke="#d6e4ff" stroke-width="6" stroke-linecap="round"/><path d="M269.02657,161.21959c0.16655,4.77674 -0.73561,8.68521 -2.01504,8.72982c-1.27941,0.04461 -2.45157,-3.79157 -2.6181,-8.56829c-0.16652,-4.77671 0.73563,-8.68518 2.01507,-8.72979c1.27941,-0.04461 2.45157,3.79154 2.6181,8.56829z" data-paper-data="{&quot;origPos&quot;:null}" fill="#08256e" stroke="#08236e" stroke-width="8.5" stroke-linecap="butt"/><path d="M209.79604,196.96973c0.3934,2.31768 -1.09787,4.50374 -3.33075,4.88276c-2.23291,0.37899 -4.36189,-1.19264 -4.75528,-3.51032c-0.3934,-2.31768 1.09782,-4.50374 3.33073,-4.88277c2.23291,-0.37899 4.36191,1.19264 4.75528,3.51032z" data-paper-data="{&quot;origPos&quot;:null}" fill="#d6e2ff" stroke="#d6e4ff" stroke-width="4.5" stroke-linecap="butt"/><path d="M214.07898,210.18691c0.14023,0.82621 -0.39133,1.60548 -1.18732,1.74058c-0.79595,0.1351 -1.55492,-0.42514 -1.69515,-1.25132c-0.14023,-0.82621 0.39133,-1.60548 1.18732,-1.74058c0.79595,-0.1351 1.55491,0.42514 1.69515,1.25135z" data-paper-data="{&quot;origPos&quot;:null}" fill="#d6e2ff" stroke="#d6e4ff" stroke-width="5.5" stroke-linecap="butt"/><path d="M242.60376,161.21959c0.16655,4.77674 -0.73561,8.68518 -2.01504,8.72979c-1.27941,0.04461 -2.45157,-3.79154 -2.6181,-8.56826c-0.16652,-4.77671 0.73564,-8.68518 2.01504,-8.72979c1.27941,-0.04461 2.45157,3.79154 2.6181,8.56829z" data-paper-data="{&quot;origPos&quot;:null}" fill="#08256e" stroke="#08236e" stroke-width="8.5" stroke-linecap="butt"/><path d="M241.11779,158.91362l-0.19863,4.13192" data-paper-data="{&quot;origPos&quot;:null}" fill="none" stroke="#d6e3ff" stroke-width="5.5" stroke-linecap="round"/><path d="M271.58814,192.58607c0,0 -6.01308,3.00064 -9.89791,3.69843c-3.89035,0.69878 -6.90869,0.39962 -10.86109,0.3536c-4.53001,-0.05273 -12.0785,-4.44861 -12.0785,-4.44861" data-paper-data="{&quot;origPos&quot;:null}" fill="none" stroke="#0b3aa3" stroke-width="8" stroke-linecap="round"/><path d="M266.8759,159.54962l-0.19863,4.13192" data-paper-data="{&quot;origPos&quot;:null}" fill="none" stroke="#d6e3ff" stroke-width="5.5" stroke-linecap="round"/></g></g><path d="M134.96876,329.49064v-45.5h226.5v45.5z" data-paper-data="{&quot;origPos&quot;:null}" fill="#d2d2d2" stroke="none" stroke-width="0" stroke-linecap="butt"/><path d="M339.43753,306.98128c0,-12.4264 10.0736,-22.5 22.5,-22.5c12.4264,0 22.5,10.0736 22.5,22.5c0,12.4264 -10.0736,22.5 -22.5,22.5c-12.4264,0 -22.5,-10.0736 -22.5,-22.5z" data-paper-data="{&quot;origPos&quot;:null}" fill="#d2d2d2" stroke="none" stroke-width="0" stroke-linecap="butt"/><path d="M114.43753,306.98128c0,-12.4264 10.0736,-22.5 22.5,-22.5c12.4264,0 22.5,10.0736 22.5,22.5c0,12.4264 -10.0736,22.5 -22.5,22.5c-12.42641,0 -22.5,-10.0736 -22.5,-22.5z" data-paper-data="{&quot;origPos&quot;:null}" fill="#d2d2d2" stroke="none" stroke-width="0" stroke-linecap="butt"/><text transform="translate(111,69.10722) scale(1.36984,1.36984)" font-size="40" xml:space="preserve" data-paper-data="{&quot;origPos&quot;:null}" fill="#ffffff" fill-rule="nonzero" stroke="none" stroke-width="1" stroke-linecap="butt" stroke-linejoin="miter" stroke-miterlimit="10" stroke-dasharray="" stroke-dashoffset="0" font-family="Sans Serif" font-weight="normal" text-anchor="start" style="mix-blend-mode: normal"><tspan x="0" dy="0">Well Done!</tspan></text><text transform="translate(137,318.5) scale(0.89003,0.89003)" font-size="40" xml:space="preserve" data-paper-data="{&quot;origPos&quot;:null}" fill="#ffffff" fill-rule="nonzero" stroke="none" stroke-width="1" stroke-linecap="butt" stroke-linejoin="miter" stroke-miterlimit="10" stroke-dasharray="" stroke-dashoffset="0" font-family="Sans Serif" font-weight="normal" text-anchor="start" style="mix-blend-mode: normal"><tspan x="0" dy="0">Time:</tspan></text></g></g></svg>