<svg version="1.1" xmlns="http://www.w3.org/2000/svg" xmlns:xlink="http://www.w3.org/1999/xlink" width="995" height="693" viewBox="0,0,995,693"><g transform="translate(511,297)"><g data-paper-data="{&quot;isPaintingLayer&quot;:true}" fill-rule="nonzero" stroke="none" stroke-linecap="butt" stroke-linejoin="miter" stroke-miterlimit="10" stroke-dasharray="" stroke-dashoffset="0" style="mix-blend-mode: normal"><g data-paper-data="{&quot;origPos&quot;:null}"><path d="M-288.75,99v-166h481v166z" data-paper-data="{&quot;origPos&quot;:null}" fill="#ababab" stroke-width="0"/><g data-paper-data="{&quot;origPos&quot;:null}"><path d="M-270.87767,90.73106l7.17272,-34.46491h6.45545l6.63476,34.46491z" data-paper-data="{&quot;origPos&quot;:null}" fill="#ff8c26" stroke-width="NaN"/><path d="M-271.2363,90.73106l1.64193,-6.09681h17.87878l1.45949,6.09681z" data-paper-data="{&quot;origPos&quot;:null}" fill="#ffffff" stroke-width="0"/><path d="M-268.47481,78.89607l1.26458,-6.09681h13.16817l1.13204,6.09681z" data-paper-data="{&quot;origPos&quot;:null}" fill="#ffffff" stroke-width="0"/><path d="M-266.03608,67.348l1.25908,-6.09681h8.51068l1.16864,6.09681z" data-paper-data="{&quot;origPos&quot;:null}" fill="#ffffff" stroke-width="0"/><path d="M-274.26453,93.71666v-3.5236h27.16667v3.5236z" data-paper-data="{&quot;origPos&quot;:null}" fill="#ff9e26" stroke-width="0"/></g><g data-paper-data="{&quot;origPos&quot;:null}"><path d="M-173.87767,91.73106l7.17272,-34.46491h6.45545l6.63476,34.46491z" data-paper-data="{&quot;origPos&quot;:null}" fill="#ff8c26" stroke-width="NaN"/><path d="M-174.2363,91.73106l1.64193,-6.09681h17.87878l1.45949,6.09681z" data-paper-data="{&quot;origPos&quot;:null}" fill="#ffffff" stroke-width="0"/><path d="M-171.47481,79.89607l1.26458,-6.09681h13.16817l1.13204,6.09681z" data-paper-data="{&quot;origPos&quot;:null}" fill="#ffffff" stroke-width="0"/><path d="M-169.03608,68.348l1.25908,-6.09681h8.51068l1.16864,6.09681z" data-paper-data="{&quot;origPos&quot;:null}" fill="#ffffff" stroke-width="0"/><path d="M-177.26453,94.71666v-3.5236h27.16667v3.5236z" data-paper-data="{&quot;origPos&quot;:null}" fill="#ff9e26" stroke-width="0"/></g><g data-paper-data="{&quot;origPos&quot;:null}"><path d="M-81.87767,91.73106l7.17272,-34.46491h6.45545l6.63476,34.46491z" data-paper-data="{&quot;origPos&quot;:null}" fill="#ff8c26" stroke-width="NaN"/><path d="M-82.2363,91.73106l1.64193,-6.09681h17.87878l1.45949,6.09681z" data-paper-data="{&quot;origPos&quot;:null}" fill="#ffffff" stroke-width="0"/><path d="M-79.47481,79.89607l1.26458,-6.09681h13.16817l1.13204,6.09681z" data-paper-data="{&quot;origPos&quot;:null}" fill="#ffffff" stroke-width="0"/><path d="M-77.03608,68.348l1.25908,-6.09681h8.51068l1.16864,6.09681z" data-paper-data="{&quot;origPos&quot;:null}" fill="#ffffff" stroke-width="0"/><path d="M-85.26453,94.71666v-3.5236h27.16667v3.5236z" data-paper-data="{&quot;origPos&quot;:null}" fill="#ff9e26" stroke-width="0"/></g></g><g data-paper-data="{&quot;origPos&quot;:null}"><path d="M23.12233,92.73106l7.17272,-34.46491h6.45545l6.63476,34.46491z" data-paper-data="{&quot;origPos&quot;:null}" fill="#ff8c26" stroke-width="NaN"/><path d="M22.7637,92.73106l1.64193,-6.09681h17.87878l1.45949,6.09681z" data-paper-data="{&quot;origPos&quot;:null}" fill="#ffffff" stroke-width="0"/><path d="M25.52519,80.89607l1.26458,-6.09681h13.16817l1.13204,6.09681z" data-paper-data="{&quot;origPos&quot;:null}" fill="#ffffff" stroke-width="0"/><path d="M27.96392,69.348l1.25908,-6.09681h8.51068l1.16864,6.09681z" data-paper-data="{&quot;origPos&quot;:null}" fill="#ffffff" stroke-width="0"/><path d="M19.73547,95.71666v-3.5236h27.16667v3.5236z" data-paper-data="{&quot;origPos&quot;:null}" fill="#ff9e26" stroke-width="0"/></g><g data-paper-data="{&quot;origPos&quot;:null}"><path d="M118.12233,92.73106l7.17272,-34.46491h6.45545l6.63476,34.46491z" data-paper-data="{&quot;origPos&quot;:null}" fill="#ff8c26" stroke-width="NaN"/><path d="M117.7637,92.73106l1.64193,-6.09681h17.87878l1.45949,6.09681z" data-paper-data="{&quot;origPos&quot;:null}" fill="#ffffff" stroke-width="0"/><path d="M120.52519,80.89607l1.26458,-6.09681h13.16817l1.13204,6.09681z" data-paper-data="{&quot;origPos&quot;:null}" fill="#ffffff" stroke-width="0"/><path d="M122.96392,69.348l1.25908,-6.09681h8.51068l1.16864,6.09681z" data-paper-data="{&quot;origPos&quot;:null}" fill="#ffffff" stroke-width="0"/><path d="M114.73547,95.71666v-3.5236h27.16667v3.5236z" data-paper-data="{&quot;origPos&quot;:null}" fill="#ff9e26" stroke-width="0"/></g><path d="M-44,396v-399h528v399z" data-paper-data="{&quot;origPos&quot;:null}" fill="none" stroke-width="NaN"/><path d="M-511,93.6875v-390.6875h517v390.6875z" data-paper-data="{&quot;origPos&quot;:null}" fill="none" stroke-width="NaN"/><text transform="translate(308,11.51098) scale(0.50068,0.50068)" font-size="40" xml:space="preserve" fill="#ffffff" fill-rule="nonzero" stroke="none" stroke-width="1" stroke-linecap="butt" stroke-linejoin="miter" stroke-miterlimit="10" stroke-dasharray="" stroke-dashoffset="0" font-family="Malgun Gothic" font-weight="normal" text-anchor="start" style="mix-blend-mode: normal"><tspan x="0" dy="0">Don't Touch The </tspan><tspan x="0" dy="48px"> Rotating Blades</tspan></text></g></g></svg>