<svg version="1.1" xmlns="http://www.w3.org/2000/svg" xmlns:xlink="http://www.w3.org/1999/xlink" width="528" height="399"><g transform="translate(44,3)"><g data-paper-data="{&quot;isPaintingLayer&quot;:true}" fill="none" fill-rule="nonzero" stroke="none" stroke-width="none" stroke-linecap="butt" stroke-linejoin="miter" stroke-miterlimit="10" stroke-dasharray="" stroke-dashoffset="0" font-family="none" font-weight="none" font-size="none" text-anchor="none" style="mix-blend-mode: normal"><g data-paper-data="{&quot;origPos&quot;:null}"><path d="M82.12233,38.73106l7.17272,-34.46491h6.45545l6.63476,34.46491z" data-paper-data="{&quot;origPos&quot;:null}" fill="#ff8c26" stroke-width="NaN"/><path d="M81.7637,38.73106l1.64193,-6.09681h17.87878l1.45949,6.09681z" data-paper-data="{&quot;origPos&quot;:null}" fill="#ffffff" stroke-width="0"/><path d="M84.52519,26.89607l1.26458,-6.09681h13.16817l1.13204,6.09681z" data-paper-data="{&quot;origPos&quot;:null}" fill="#ffffff" stroke-width="0"/><path d="M86.96392,15.348l1.25908,-6.09681h8.51068l1.16864,6.09681z" data-paper-data="{&quot;origPos&quot;:null}" fill="#ffffff" stroke-width="0"/><path d="M78.73547,41.71666v-3.5236h27.16667v3.5236z" data-paper-data="{&quot;origPos&quot;:null}" fill="#ff9e26" stroke-width="0"/></g><g data-paper-data="{&quot;origPos&quot;:null}"><path d="M154.12233,38.73106l7.17272,-34.46491h6.45545l6.63476,34.46491z" data-paper-data="{&quot;origPos&quot;:null}" fill="#ff8c26" stroke-width="NaN"/><path d="M153.7637,38.73106l1.64193,-6.09681h17.87878l1.45949,6.09681z" data-paper-data="{&quot;origPos&quot;:null}" fill="#ffffff" stroke-width="0"/><path d="M156.52519,26.89607l1.26458,-6.09681h13.16817l1.13204,6.09681z" data-paper-data="{&quot;origPos&quot;:null}" fill="#ffffff" stroke-width="0"/><path d="M158.96392,15.348l1.25908,-6.09681h8.51068l1.16864,6.09681z" data-paper-data="{&quot;origPos&quot;:null}" fill="#ffffff" stroke-width="0"/><path d="M150.73547,41.71666v-3.5236h27.16667v3.5236z" data-paper-data="{&quot;origPos&quot;:null}" fill="#ff9e26" stroke-width="0"/></g><path d="M-44,396v-399h528v399z" data-paper-data="{&quot;origPos&quot;:null}" fill="none" stroke-width="NaN"/></g></g></svg>