<svg version="1.1" xmlns="http://www.w3.org/2000/svg" xmlns:xlink="http://www.w3.org/1999/xlink" width="65.1314" height="63.92746" viewBox="0,0,65.1314,63.92746"><g transform="translate(-207.4343,-148.03627)"><g data-paper-data="{&quot;isPaintingLayer&quot;:true}" fill="none" fill-rule="nonzero" stroke="none" stroke-width="none" stroke-linecap="none" stroke-linejoin="miter" stroke-miterlimit="10" stroke-dasharray="" stroke-dashoffset="0" font-family="none" font-weight="none" font-size="none" text-anchor="none" style="mix-blend-mode: normal"><path d="M257.82431,179.56894c0,9.60603 -8.03642,17.39325 -17.94984,17.39325c-9.91342,0 -17.94983,-7.78722 -17.94983,-17.39325c0,-9.60603 8.03641,-17.39325 17.94983,-17.39325c9.91342,0 17.94984,7.78722 17.94984,17.39325z" data-paper-data="{&quot;origPos&quot;:null}" fill="#a60000" stroke="#000000" stroke-width="0" stroke-linecap="butt"/><path d="M246.61263,164.23317l14.92859,-5.77348l-5.60853,14.84611" data-paper-data="{&quot;origPos&quot;:null,&quot;origRot&quot;:0}" fill="#c00000" stroke="#a60000" stroke-width="1.5" stroke-linecap="round"/><path d="M256.08899,173.72691l14.63858,6.47364l-14.46362,6.53195" data-paper-data="{&quot;origPos&quot;:null,&quot;origRot&quot;:0}" fill="#c00000" stroke="#a60000" stroke-width="1.5" stroke-linecap="round"/><path d="M256.29898,186.37765l5.77348,14.92859l-14.84611,-5.60853" data-paper-data="{&quot;origPos&quot;:null,&quot;origRot&quot;:0}" fill="#c00000" stroke="#a60000" stroke-width="1.5" stroke-linecap="round"/><path d="M246.41882,195.48702l-6.47364,14.63858l-6.53195,-14.46362" data-paper-data="{&quot;origPos&quot;:null,&quot;origRot&quot;:0}" fill="#c00000" stroke="#a60000" stroke-width="1.5" stroke-linecap="round"/><path d="M233.00493,195.47474l-14.92859,5.77348l5.60853,-14.84611" data-paper-data="{&quot;origPos&quot;:null,&quot;origRot&quot;:0}" fill="#c00000" stroke="#a60000" stroke-width="1.5" stroke-linecap="round"/><path d="M223.91101,186.67779l-14.63858,-6.47364l14.46362,-6.53195" data-paper-data="{&quot;origPos&quot;:null,&quot;origRot&quot;:0}" fill="#c00000" stroke="#a60000" stroke-width="1.5" stroke-linecap="round"/><path d="M223.33033,173.60689l-5.77348,-14.92858l14.84611,5.60853" data-paper-data="{&quot;origPos&quot;:null,&quot;origRot&quot;:0}" fill="#c00000" stroke="#a60000" stroke-width="1.5" stroke-linecap="round"/><path d="M232.12728,164.51298l6.47364,-14.63858l6.53195,14.46362" data-paper-data="{&quot;origPos&quot;:null,&quot;origRot&quot;:0}" fill="#c00000" stroke="#a60000" stroke-width="1.5" stroke-linecap="round"/></g></g></svg>