<svg version="1.1" xmlns="http://www.w3.org/2000/svg" xmlns:xlink="http://www.w3.org/1999/xlink" width="121.1875" height="157"><g transform="translate(-183.075,-96.075)"><g data-paper-data="{&quot;isPaintingLayer&quot;:true}" fill="none" fill-rule="nonzero" stroke="none" stroke-width="none" stroke-linecap="butt" stroke-linejoin="miter" stroke-miterlimit="10" stroke-dasharray="" stroke-dashoffset="0" font-family="none" font-weight="none" font-size="none" text-anchor="none" style="mix-blend-mode: normal"><path d="M237.65417,226.33333v-57.66667h8v57.66667z" data-paper-data="{&quot;origPos&quot;:null}" fill="#ffffff" stroke="#e6e6e6" stroke-width="2"/><path d="M218.48983,169.39614c-2.38483,0 -4.58851,-1.27228 -5.78096,-3.33758c-1.19245,-2.06531 -1.19251,-4.60989 -0.00016,-6.67525l22.77165,-39.44168c1.19251,-2.06529 3.39623,-3.33752 5.78108,-3.33748c2.38485,0.00004 4.58853,1.27235 5.78098,3.33767l22.77108,39.44148c1.19253,2.06527 1.19261,4.60989 0.00021,6.67525c-1.1924,2.06536 -3.3961,3.33765 -5.78095,3.33759z" data-paper-data="{&quot;origPos&quot;:null}" fill="#ffffff" stroke="#e6e6e6" stroke-width="3"/><path d="" data-paper-data="{&quot;origPos&quot;:null}" fill="#ff5e87" stroke="none" stroke-width="0.5"/><path d="" data-paper-data="{&quot;origPos&quot;:null}" fill="#a20b7b" stroke="none" stroke-width="0.5"/><path d="" data-paper-data="{&quot;origPos&quot;:null}" fill="#fff3d5" stroke="none" stroke-width="0.5"/><path d="M183.075,253.075v-157h121.1875v157z" data-paper-data="{&quot;origPos&quot;:null}" fill="none" stroke="none" stroke-width="0"/><path d="M248.26709,158.72211c-1.78378,1.28822 -7.7814,-4.11731 -7.7814,-4.11731c0,0 -6.02724,5.37742 -7.80474,4.07854c-1.77892,-1.2987 1.51051,-8.67551 1.51051,-8.67551c0,0 -6.97572,-4.07098 -6.28975,-6.16257c0.68584,-2.09313 8.71697,-1.24401 8.71697,-1.24401c0,0 1.71436,-7.89187 3.91582,-7.88785c2.20455,0.00521 3.87945,7.90705 3.87945,7.90705c0,0 8.03546,-0.80842 8.70912,1.28832c0.67795,2.09495 -6.31947,6.13072 -6.31947,6.13072c0,0 3.25172,7.39403 1.46348,8.68262z" data-paper-data="{&quot;origPos&quot;:null,&quot;origRot&quot;:0}" id="Star" fill="#ffff00" stroke="#e1e100" stroke-width="2.5"/></g></g></svg>