<svg version="1.1" xmlns="http://www.w3.org/2000/svg" xmlns:xlink="http://www.w3.org/1999/xlink" width="528" height="399"><g transform="translate(44,3)"><g data-paper-data="{&quot;isPaintingLayer&quot;:true}" fill="none" fill-rule="nonzero" stroke="none" stroke-width="none" stroke-linecap="butt" stroke-linejoin="miter" stroke-miterlimit="10" stroke-dasharray="" stroke-dashoffset="0" font-family="none" font-weight="none" font-size="none" text-anchor="none" style="mix-blend-mode: normal"><g data-paper-data="{&quot;origPos&quot;:null}"><path d="M94.12233,201.73105l7.17272,-34.46491h6.45545l6.63476,34.46491z" data-paper-data="{&quot;origPos&quot;:null}" fill="#ff8c26" stroke-width="NaN"/><path d="M93.7637,201.73105l1.64193,-6.09681h17.87878l1.45949,6.09681z" data-paper-data="{&quot;origPos&quot;:null}" fill="#ffffff" stroke-width="0"/><path d="M96.52519,189.89606l1.26458,-6.09681h13.16817l1.13204,6.09681z" data-paper-data="{&quot;origPos&quot;:null}" fill="#ffffff" stroke-width="0"/><path d="M98.96392,178.34799l1.25908,-6.09681h8.51068l1.16864,6.09681z" data-paper-data="{&quot;origPos&quot;:null}" fill="#ffffff" stroke-width="0"/><path d="M90.73547,204.71666v-3.5236h27.16667v3.5236z" data-paper-data="{&quot;origPos&quot;:null}" fill="#ff9e26" stroke-width="0"/></g><g data-paper-data="{&quot;origPos&quot;:null}"><path d="M195.12233,201.73105l7.17272,-34.46491h6.45545l6.63476,34.46491z" data-paper-data="{&quot;origPos&quot;:null}" fill="#ff8c26" stroke-width="NaN"/><path d="M194.7637,201.73105l1.64193,-6.09681h17.87878l1.45949,6.09681z" data-paper-data="{&quot;origPos&quot;:null}" fill="#ffffff" stroke-width="0"/><path d="M197.52519,189.89606l1.26458,-6.09681h13.16817l1.13204,6.09681z" data-paper-data="{&quot;origPos&quot;:null}" fill="#ffffff" stroke-width="0"/><path d="M199.96392,178.34799l1.25908,-6.09681h8.51068l1.16864,6.09681z" data-paper-data="{&quot;origPos&quot;:null}" fill="#ffffff" stroke-width="0"/><path d="M191.73547,204.71666v-3.5236h27.16667v3.5236z" data-paper-data="{&quot;origPos&quot;:null}" fill="#ff9e26" stroke-width="0"/></g><g data-paper-data="{&quot;origPos&quot;:null}"><path d="M291.12233,201.73105l7.17272,-34.46491h6.45545l6.63476,34.46491z" data-paper-data="{&quot;origPos&quot;:null}" fill="#ff8c26" stroke-width="NaN"/><path d="M290.7637,201.73105l1.64193,-6.09681h17.87878l1.45949,6.09681z" data-paper-data="{&quot;origPos&quot;:null}" fill="#ffffff" stroke-width="0"/><path d="M293.52519,189.89606l1.26458,-6.09681h13.16817l1.13204,6.09681z" data-paper-data="{&quot;origPos&quot;:null}" fill="#ffffff" stroke-width="0"/><path d="M295.96392,178.34799l1.25908,-6.09681h8.51068l1.16864,6.09681z" data-paper-data="{&quot;origPos&quot;:null}" fill="#ffffff" stroke-width="0"/><path d="M287.73547,204.71666v-3.5236h27.16667v3.5236z" data-paper-data="{&quot;origPos&quot;:null}" fill="#ff9e26" stroke-width="0"/></g><path d="M-44,396v-399h528v399z" data-paper-data="{&quot;origPos&quot;:null}" fill="none" stroke-width="NaN"/></g></g></svg>