<svg version="1.1" xmlns="http://www.w3.org/2000/svg" xmlns:xlink="http://www.w3.org/1999/xlink" width="528" height="399"><g transform="translate(44,3)"><g data-paper-data="{&quot;isPaintingLayer&quot;:true}" fill="none" fill-rule="nonzero" stroke="none" stroke-width="none" stroke-linecap="butt" stroke-linejoin="miter" stroke-miterlimit="10" stroke-dasharray="" stroke-dashoffset="0" font-family="none" font-weight="none" font-size="none" text-anchor="none" style="mix-blend-mode: normal"><path d="M39.25,325v-166h283v166z" data-paper-data="{&quot;origPos&quot;:null}" fill="#ababab" stroke-width="0"/><g data-paper-data="{&quot;origPos&quot;:null}"><path d="M69.12233,318.73106l7.17272,-34.46491h6.45545l6.63476,34.46491z" data-paper-data="{&quot;origPos&quot;:null}" fill="#ff8c26" stroke-width="NaN"/><path d="M68.7637,318.73106l1.64193,-6.09681h17.87878l1.45949,6.09681z" data-paper-data="{&quot;origPos&quot;:null}" fill="#ffffff" stroke-width="0"/><path d="M71.52519,306.89607l1.26458,-6.09681h13.16817l1.13204,6.09681z" data-paper-data="{&quot;origPos&quot;:null}" fill="#ffffff" stroke-width="0"/><path d="M73.96392,295.348l1.25908,-6.09681h8.51068l1.16864,6.09681z" data-paper-data="{&quot;origPos&quot;:null}" fill="#ffffff" stroke-width="0"/><path d="M65.73547,321.71666v-3.5236h27.16667v3.5236z" data-paper-data="{&quot;origPos&quot;:null}" fill="#ff9e26" stroke-width="0"/></g><g data-paper-data="{&quot;origPos&quot;:null}"><path d="M267.12233,317.73106l7.17272,-34.46491h6.45545l6.63476,34.46491z" data-paper-data="{&quot;origPos&quot;:null}" fill="#ff8c26" stroke-width="NaN"/><path d="M266.7637,317.73106l1.64193,-6.09681h17.87878l1.45949,6.09681z" data-paper-data="{&quot;origPos&quot;:null}" fill="#ffffff" stroke-width="0"/><path d="M269.52519,305.89607l1.26458,-6.09681h13.16817l1.13204,6.09681z" data-paper-data="{&quot;origPos&quot;:null}" fill="#ffffff" stroke-width="0"/><path d="M271.96392,294.348l1.25908,-6.09681h8.51068l1.16864,6.09681z" data-paper-data="{&quot;origPos&quot;:null}" fill="#ffffff" stroke-width="0"/><path d="M263.73547,320.71666v-3.5236h27.16667v3.5236z" data-paper-data="{&quot;origPos&quot;:null}" fill="#ff9e26" stroke-width="0"/></g><path d="M-44,396v-399h528v399z" data-paper-data="{&quot;origPos&quot;:null}" fill="none" stroke-width="NaN"/></g></g></svg>