<svg version="1.1" xmlns="http://www.w3.org/2000/svg" xmlns:xlink="http://www.w3.org/1999/xlink" width="27.17869" height="27.18936"><g transform="translate(-223.80017,-163.4202)"><g data-paper-data="{&quot;isPaintingLayer&quot;:true}" fill="none" fill-rule="nonzero" stroke="none" stroke-width="none" stroke-linecap="butt" stroke-linejoin="miter" stroke-miterlimit="10" stroke-dasharray="" stroke-dashoffset="0" font-family="none" font-weight="none" font-size="none" text-anchor="none" style="mix-blend-mode: normal"><g data-paper-data="{&quot;origPos&quot;:null}"><path d="M249.72886,177.01488c0,6.81778 -5.52452,12.34468 -12.33935,12.34468c-6.81484,0 -12.33935,-5.5269 -12.33935,-12.34468c0,-6.81778 5.52452,-12.34468 12.33935,-12.34468c6.81484,0 12.33935,5.5269 12.33935,12.34468z" data-paper-data="{&quot;origPos&quot;:null}" fill="#ffffff" stroke="#000000" stroke-width="2.5"/><g data-paper-data="{&quot;origPos&quot;:null}" stroke-width="1"><path d="M244.13731,180.68455c0.84434,0.87439 0.82026,2.27277 -0.05414,3.11712c-0.41298,0.39908 -0.95708,0.61886 -1.53124,0.61886v0c-0.60345,0 -1.16619,-0.2389 -1.58538,-0.67299l-3.60684,-3.73448l-3.66122,3.68108c-0.41646,0.41895 -0.97198,0.64989 -1.56278,0.64989c-0.58657,0 -1.13862,-0.22797 -1.55434,-0.64145c-0.86173,-0.85726 -0.86545,-2.25539 -0.0082,-3.11712l3.7233,-3.74392l-3.66818,-3.79805c-0.84434,-0.87414 -0.82,-2.27253 0.05414,-3.11687c0.41323,-0.39882 0.95684,-0.6186 1.53099,-0.6186c0.60345,0 1.16668,0.2389 1.58587,0.67299l3.60658,3.73398l3.66122,-3.68084c0.41671,-0.41919 0.97198,-0.64989 1.56303,-0.64989c0.58632,0 1.13837,0.22748 1.55384,0.6412c0.86198,0.85701 0.8657,2.25564 0.00869,3.11736l-3.72355,3.74392z" fill="#be2026" stroke="#be2026"/><path d="M243.81001,181.00118c0.67125,0.69485 0.65213,1.80193 -0.04272,2.47368c-0.69485,0.67076 -1.80242,0.65163 -2.47368,-0.04321l-3.92918,-4.06825l-3.98828,4.01014c-0.68118,0.68491 -1.78852,0.68789 -2.47393,0.00646c-0.68466,-0.68118 -0.68789,-1.78852 -0.00646,-2.47393l4.03769,-4.06005l-3.97809,-4.11865c-0.671,-0.69485 -0.65189,-1.80218 0.04321,-2.47368c0.6946,-0.671 1.80218,-0.65163 2.47342,0.04321l3.92893,4.068l3.98853,-4.00988c0.68144,-0.68491 1.78901,-0.68814 2.47393,-0.00695c0.68516,0.68144 0.68789,1.78901 0.0067,2.47418l-4.0382,4.0598z" fill="#dd2726" stroke="#bc192d"/></g></g></g></g></svg>