<svg version="1.1" xmlns="http://www.w3.org/2000/svg" xmlns:xlink="http://www.w3.org/1999/xlink" width="623" height="484"><g transform="translate(12,103)"><g data-paper-data="{&quot;isPaintingLayer&quot;:true}" fill="none" fill-rule="nonzero" stroke="none" stroke-width="none" stroke-linecap="none" stroke-linejoin="miter" stroke-miterlimit="10" stroke-dasharray="" stroke-dashoffset="0" font-family="none" font-weight="none" font-size="none" text-anchor="none" style="mix-blend-mode: normal"><path d="M136.68047,362v-249h247.2288v249z" data-paper-data="{&quot;origPos&quot;:null}" fill="#838383" stroke="#b8b8b8" stroke-width="0" stroke-linecap="butt"/><path d="M132.04091,367v-30h351.98249v30z" data-paper-data="{&quot;origPos&quot;:null}" fill="#838383" stroke="#919191" stroke-width="0" stroke-linecap="butt"/><path d="M121.10614,334l365.89386,1" data-paper-data="{&quot;origPos&quot;:null}" fill="none" stroke="#9d9d9d" stroke-width="12.5" stroke-linecap="round"/><path d="M486.25585,324l-365.50634,-2" data-paper-data="{&quot;origPos&quot;:null}" fill="none" stroke="#b8b8b8" stroke-width="12.5" stroke-linecap="round"/><path d="M135,120l257,1" data-paper-data="{&quot;origPos&quot;:null}" fill="none" stroke="#9d9d9d" stroke-width="12.5" stroke-linecap="round"/><path d="M134.74951,109l256.72781,1" data-paper-data="{&quot;origPos&quot;:null}" fill="none" stroke="#b8b8b8" stroke-width="12.5" stroke-linecap="round"/><g><g><path d="M340.68047,-37v-39h247.2288v39z" data-paper-data="{&quot;origPos&quot;:null}" fill="#838383" stroke="#b8b8b8" stroke-width="0" stroke-linecap="butt"/><path d="M339,-68l257,1" data-paper-data="{&quot;origPos&quot;:null}" fill="none" stroke="#9d9d9d" stroke-width="12.5" stroke-linecap="round"/><path d="M595.47732,-78l-256.72781,-1" data-paper-data="{&quot;origPos&quot;:null}" fill="none" stroke="#b8b8b8" stroke-width="12.5" stroke-linecap="round"/></g><path d="M106.68047,-37v-39h247.2288v39z" data-paper-data="{&quot;origPos&quot;:null}" fill="#838383" stroke="#b8b8b8" stroke-width="0" stroke-linecap="butt"/><path d="M362,-68l-257,-1" data-paper-data="{&quot;origPos&quot;:null}" fill="none" stroke="#9d9d9d" stroke-width="12.5" stroke-linecap="round"/><path d="M361.47732,-79l-256.72781,-1" data-paper-data="{&quot;origPos&quot;:null}" fill="none" stroke="#b8b8b8" stroke-width="12.5" stroke-linecap="round"/></g><path d="M40,253v-356h479v356z" data-paper-data="{&quot;origPos&quot;:null}" fill="none" stroke="none" stroke-width="NaN" stroke-linecap="butt"/><path d="M-12,381v-384h623v384z" fill="none" stroke="none" stroke-width="0" stroke-linecap="butt"/></g></g></svg>