<svg version="1.1" xmlns="http://www.w3.org/2000/svg" xmlns:xlink="http://www.w3.org/1999/xlink" width="508.125" height="731.6705"><defs><linearGradient x1="430.00005" y1="57.5" x2="489.00005" y2="57.5" gradientUnits="userSpaceOnUse" id="color-1"><stop offset="0" stop-color="#2e2e2e"/><stop offset="1" stop-color="#545454"/></linearGradient><linearGradient x1="-4.99995" y1="69" x2="54.00005" y2="69" gradientUnits="userSpaceOnUse" id="color-2"><stop offset="0" stop-color="#2e2e2e"/><stop offset="1" stop-color="#545454"/></linearGradient><linearGradient x1="30.50005" y1="123.96664" x2="243.50005" y2="123.96664" gradientUnits="userSpaceOnUse" id="color-3"><stop offset="0" stop-color="#2e2e2e"/><stop offset="1" stop-color="#545454"/></linearGradient><linearGradient x1="244.57581" y1="234.25" x2="291.5758" y2="234.25" gradientUnits="userSpaceOnUse" id="color-4"><stop offset="0" stop-color="#2e2e2e"/><stop offset="1" stop-color="#2e2e2e" stop-opacity="0"/></linearGradient><linearGradient x1="268.66668" y1="111.16669" x2="268.66668" y2="151" gradientUnits="userSpaceOnUse" id="color-5"><stop offset="0" stop-color="#545454"/><stop offset="1" stop-color="#545454" stop-opacity="0"/></linearGradient><linearGradient x1="137.06494" y1="153.45455" x2="137.06494" y2="106.45455" gradientUnits="userSpaceOnUse" id="color-6"><stop offset="0" stop-color="#2e2e2e"/><stop offset="1" stop-color="#2e2e2e" stop-opacity="0"/></linearGradient><linearGradient x1="29.53416" y1="249.96664" x2="323.07957" y2="249.96664" gradientUnits="userSpaceOnUse" id="color-7"><stop offset="0" stop-color="#2e2e2e"/><stop offset="1" stop-color="#545454"/></linearGradient><linearGradient x1="320.5758" y1="357.25" x2="395.57581" y2="357.25" gradientUnits="userSpaceOnUse" id="color-8"><stop offset="0" stop-color="#2e2e2e"/><stop offset="1" stop-color="#2e2e2e" stop-opacity="0"/></linearGradient><linearGradient x1="176.86857" y1="279.45455" x2="176.86857" y2="232.45455" gradientUnits="userSpaceOnUse" id="color-9"><stop offset="0" stop-color="#2e2e2e"/><stop offset="1" stop-color="#2e2e2e" stop-opacity="0"/></linearGradient><linearGradient x1="353.66672" y1="234.16669" x2="353.66672" y2="277" gradientUnits="userSpaceOnUse" id="color-10"><stop offset="0" stop-color="#545454"/><stop offset="1" stop-color="#545454" stop-opacity="0"/></linearGradient></defs><g transform="translate(6.99993,245)"><g data-paper-data="{&quot;isPaintingLayer&quot;:true}" fill="none" fill-rule="nonzero" stroke="none" stroke-width="none" stroke-linecap="none" stroke-linejoin="miter" stroke-miterlimit="10" stroke-dasharray="" stroke-dashoffset="0" font-family="none" font-weight="none" font-size="none" text-anchor="none" style="mix-blend-mode: normal"><path d="M-6.99992,361v-372h508.125v372z" data-paper-data="{&quot;origPos&quot;:null}" fill="#5f5f5f" stroke="#f9c03b" stroke-width="0" stroke-linecap="butt"/><g><path d="M430.00005,360v-605h59v605z" data-paper-data="{&quot;origPos&quot;:null}" fill="url(#color-1)" stroke="none" stroke-width="0" stroke-linecap="butt"/><path d="M-4.99995,360v-582h59v582z" data-paper-data="{&quot;origPos&quot;:null}" fill="url(#color-2)" stroke="none" stroke-width="0" stroke-linecap="butt"/><path d="M22.50005,123.96664c0.5405,-25.95646 8,-29.5 8,-29.5l211,-2c0,0 35.69348,-2.01318 48.96894,12.092c13.27547,14.10518 9.03106,49.408 9.03106,49.408l0.45508,206.53336l-54.9528,0.1705l-0.50228,-207.20386h-214c0,0 -8.52887,-4.10199 -8,-29.5z" data-paper-data="{&quot;origPos&quot;:null,&quot;origRot&quot;:0,&quot;index&quot;:null}" fill="url(#color-3)" stroke="none" stroke-width="0" stroke-linecap="butt"/><path d="M244.57581,357v-245.5h47v245.5z" data-paper-data="{&quot;origPos&quot;:null}" fill="url(#color-4)" stroke="none" stroke-width="0" stroke-linecap="butt"/><path d="M244.66672,151v-39.83334h48v39.83334z" data-paper-data="{&quot;origPos&quot;:null}" fill="url(#color-5)" stroke="none" stroke-width="0" stroke-linecap="butt"/><g data-paper-data="{&quot;origPos&quot;:null}" fill="none" stroke="#2e2e2e" stroke-width="9"><path d="M84.00005,128.5c0,-16.84468 13.65532,-30.5 30.5,-30.5c16.84468,0 30.5,13.65532 30.5,30.5c0,16.84468 -13.65532,26 -30.5,26c-16.84468,0 -30.5,-9.15532 -30.5,-26z" data-paper-data="{&quot;origPos&quot;:null}" stroke-linecap="butt"/><path d="M141.33337,128.33334h-54" data-paper-data="{&quot;origPos&quot;:null}" stroke-linecap="round"/><path d="M114.33339,155v-53.66666" data-paper-data="{&quot;origPos&quot;:null}" stroke-linecap="round"/></g><path d="M244.54803,153.45455h-214.96614c0,0 -7.53386,-14.82882 -7.53386,-24c0,-9.17118 7.53386,-23 7.53386,-23h214.96614z" data-paper-data="{&quot;origPos&quot;:null,&quot;origRot&quot;:0}" fill="url(#color-6)" stroke="none" stroke-width="0" stroke-linecap="butt"/><path d="M18.50898,249.96664c0.74489,-25.95646 11.02518,-29.5 11.02518,-29.5l290.78916,-2c0,0 49.19089,-2.01318 67.48643,12.092c18.29556,14.10518 12.44613,49.408 12.44613,49.408l0.62717,206.53336l-75.73307,0.1705l-0.69222,-207.20386h-294.9236c0,0 -11.75404,-4.10199 -11.02518,-29.5z" data-paper-data="{&quot;origPos&quot;:null,&quot;origRot&quot;:0,&quot;index&quot;:null}" fill="url(#color-7)" stroke="none" stroke-width="0" stroke-linecap="butt"/><g data-paper-data="{&quot;origPos&quot;:null}" fill="none" stroke="#4d4d4d" stroke-width="9"><path d="M84.00005,124.5c0,-16.84468 13.65532,-30.5 30.5,-30.5c16.84468,0 30.5,13.65532 30.5,30.5c0,16.84468 -13.65532,30.5 -30.5,30.5c-16.84468,0 -30.5,-13.65532 -30.5,-30.5z" data-paper-data="{&quot;origPos&quot;:null}" stroke-linecap="butt"/><path d="M141.33337,124.33334h-54" data-paper-data="{&quot;origPos&quot;:null}" stroke-linecap="round"/><path d="M114.33339,97.33334v53.66666" data-paper-data="{&quot;origPos&quot;:null}" stroke-linecap="round"/></g><path d="M320.5758,480v-245.5h75v245.5z" data-paper-data="{&quot;origPos&quot;:null}" fill="url(#color-8)" stroke="none" stroke-width="0" stroke-linecap="butt"/><path d="M321.54802,279.45455h-289.35891c0,0 -10.14109,-14.82882 -10.14109,-24c0,-9.17118 10.14109,-23 10.14109,-23h289.35891z" data-paper-data="{&quot;origPos&quot;:null,&quot;origRot&quot;:0}" fill="url(#color-9)" stroke="none" stroke-width="0" stroke-linecap="butt"/><path d="M318.66668,277v-42.83334h70v42.83334z" data-paper-data="{&quot;origPos&quot;:null}" fill="url(#color-10)" stroke="none" stroke-width="0" stroke-linecap="butt"/><g data-paper-data="{&quot;origPos&quot;:null}" fill="none" stroke="#2e2e2e" stroke-width="9"><path d="M82.00004,251.5c0,-16.84468 13.65532,-30.5 30.5,-30.5c16.84468,0 30.5,13.65532 30.5,30.5c0,16.84468 -13.65532,26 -30.5,26c-16.84468,0 -30.5,-9.15532 -30.5,-26z" data-paper-data="{&quot;origPos&quot;:null}" stroke-linecap="butt"/><path d="M139.33337,251.33334h-54" data-paper-data="{&quot;origPos&quot;:null}" stroke-linecap="round"/><path d="M112.33339,224.33334v53.66666" data-paper-data="{&quot;origPos&quot;:null}" stroke-linecap="round"/></g><g data-paper-data="{&quot;origPos&quot;:null}" fill="none" stroke="#4d4d4d" stroke-width="9"><path d="M82.00004,246.5c0,-16.84468 13.65532,-30.5 30.5,-30.5c16.84468,0 30.5,13.65532 30.5,30.5c0,16.84468 -13.65532,30.5 -30.5,30.5c-16.84468,0 -30.5,-13.65532 -30.5,-30.5z" data-paper-data="{&quot;origPos&quot;:null}" stroke-linecap="butt"/><path d="M85.33338,246.33334h54" data-paper-data="{&quot;origPos&quot;:null}" stroke-linecap="round"/><path d="M112.33339,219.33334v53.66666" data-paper-data="{&quot;origPos&quot;:null}" stroke-linecap="round"/></g></g></g></g></svg>