<svg version="1.1" xmlns="http://www.w3.org/2000/svg" xmlns:xlink="http://www.w3.org/1999/xlink" width="35.125" height="29.375"><g transform="translate(-221.66005,-164.625)"><g data-paper-data="{&quot;isPaintingLayer&quot;:true}" fill="none" fill-rule="nonzero" stroke="none" stroke-width="none" stroke-linecap="none" stroke-linejoin="miter" stroke-miterlimit="10" stroke-dasharray="" stroke-dashoffset="0" font-family="none" font-weight="none" font-size="none" text-anchor="none" style="mix-blend-mode: normal"><path d="M227.36562,184.20581c-0.44392,-0.68585 -0.47566,-7.2175 0.08929,-8.18756c0.47949,-0.82332 5.57339,-0.29231 5.57339,-0.29231c0,0 5.22442,-6.4254 5.84185,-5.69941c0.68119,0.80096 0.70129,18.59421 0.17857,19.42204c-0.52272,0.82783 -6.13759,-4.87824 -6.13759,-4.87824c0,0 -5.01385,0.4569 -5.54551,-0.36451z" data-paper-data="{&quot;origPos&quot;:null}" fill="#ffffff" stroke="#ffffff" stroke-width="3.5" stroke-linecap="butt"/><path d="M244.21258,177.754c0,0 0.52703,1.34712 0.54434,2.36936c0.01205,0.71198 -0.46912,2.07435 -0.46912,2.07435" data-paper-data="{&quot;origPos&quot;:null}" fill="#ffffff" stroke="#ffffff" stroke-width="2.5" stroke-linecap="round"/><path d="M248.31555,185.67084c0,0 1.10011,-3.91644 1.08417,-6.42316c-0.01342,-2.11186 -1.15939,-5.41137 -1.15939,-5.41137" data-paper-data="{&quot;origPos&quot;:null}" fill="#ffffff" stroke="#ffffff" stroke-width="2.5" stroke-linecap="round"/><path d="M221.66005,194v-29.375h35.125v29.375z" fill="none" stroke="none" stroke-width="NaN" stroke-linecap="butt"/></g></g></svg>