<svg version="1.1" xmlns="http://www.w3.org/2000/svg" xmlns:xlink="http://www.w3.org/1999/xlink" width="476.85492" height="360"><g transform="translate(-1,3)"><g data-paper-data="{&quot;isPaintingLayer&quot;:true}" fill="none" fill-rule="nonzero" stroke="none" stroke-width="none" stroke-linecap="none" stroke-linejoin="miter" stroke-miterlimit="10" stroke-dasharray="" stroke-dashoffset="0" font-family="none" font-weight="none" font-size="none" text-anchor="none" style="mix-blend-mode: normal"><g data-paper-data="{&quot;origPos&quot;:null}"><path d="M239.96239,204.75953c-13.86094,0 -25.09744,-11.59972 -25.09744,-25.90868c0,-14.30896 11.2365,-25.90867 25.09744,-25.90867c13.86094,0 25.09745,11.59971 25.09745,25.90867c0,14.30897 -11.23651,25.90868 -25.09745,25.90868z" data-paper-data="{&quot;origPos&quot;:null}" fill="#d14d4d" stroke="#a30b0b" stroke-width="3.5" stroke-linecap="butt"/><path d="M263.69088,178.77869c0,12.33698 -9.8745,22.3381 -22.05532,22.3381c-12.18082,0 -22.05533,-10.0011 -22.05533,-22.3381c0,-9.30383 1.77585,-16.20808 9.46704,-21.44324c3.79995,-2.58651 7.53527,-2.41591 12.13198,-2.41591c12.18082,0 22.51165,11.52216 22.51165,23.85915z" data-paper-data="{&quot;origPos&quot;:null}" fill="#ff5e5e" stroke="none" stroke-width="0" stroke-linecap="butt"/><path d="M247.72232,162.10035c0,0 2.18975,1.44183 3.25747,2.60498c0.69202,0.75387 1.27232,1.27199 1.81986,2.13652c0.6326,0.99883 1.25551,2.59686 1.25551,2.59686" data-paper-data="{&quot;origPos&quot;:null}" fill="none" stroke="#ffd6d6" stroke-width="2.5" stroke-linecap="round"/><path d="M245.82053,173.83173c0.06232,1.78736 -0.27525,3.24983 -0.75399,3.26652c-0.47873,0.01669 -0.91733,-1.41873 -0.97964,-3.20608c-0.06231,-1.78735 0.27526,-3.24982 0.754,-3.26651c0.47873,-0.01669 0.91733,1.41872 0.97964,3.20608z" data-paper-data="{&quot;origPos&quot;:null}" fill="#6e0808" stroke="#6e0808" stroke-width="5" stroke-linecap="butt"/><path d="M223.65766,187.20871c0.1472,0.86723 -0.4108,1.68521 -1.2463,1.82703c-0.83551,0.14181 -1.63213,-0.44626 -1.77933,-1.31349c-0.1472,-0.86723 0.41078,-1.68521 1.24629,-1.82703c0.83551,-0.14181 1.63214,0.44626 1.77933,1.31349z" data-paper-data="{&quot;origPos&quot;:null}" fill="#ffd6d6" stroke="#ffd6d6" stroke-width="2.5" stroke-linecap="butt"/><path d="M225.26026,192.15431c0.05247,0.30915 -0.14643,0.60074 -0.44427,0.65129c-0.29783,0.05055 -0.58182,-0.15908 -0.63429,-0.46822c-0.05247,-0.30915 0.14643,-0.60074 0.44427,-0.65129c0.29783,-0.05055 0.58182,0.15908 0.63429,0.46823z" data-paper-data="{&quot;origPos&quot;:null}" fill="#ffd6d6" stroke="#ffd6d6" stroke-width="2" stroke-linecap="butt"/><path d="M235.93366,173.83173c0.06232,1.78736 -0.27525,3.24982 -0.75399,3.26651c-0.47873,0.01669 -0.91733,-1.41872 -0.97964,-3.20607c-0.06231,-1.78735 0.27526,-3.24982 0.75399,-3.26651c0.47873,-0.01669 0.91733,1.41872 0.97964,3.20608z" data-paper-data="{&quot;origPos&quot;:null}" fill="#6e0808" stroke="#6e0808" stroke-width="5" stroke-linecap="butt"/><path d="M244.31526,171.69503l1.14523,-1.42709" data-paper-data="{&quot;origPos&quot;:null}" fill="none" stroke="#ffd6d6" stroke-width="1.5" stroke-linecap="round"/><path d="M233.63746,171.42123l1.14523,-1.42709" data-paper-data="{&quot;origPos&quot;:null}" fill="none" stroke="#ffd6d6" stroke-width="1.5" stroke-linecap="round"/><path d="M246.4191,186.05006c0,0 -2.36004,0.86787 -3.8336,0.96711c-1.47564,0.09938 -2.58582,-0.1364 -4.05381,-0.31657c-1.68253,-0.20649 -4.30845,-2.15272 -4.30845,-2.15272" data-paper-data="{&quot;origPos&quot;:null,&quot;origRot&quot;:0}" fill="none" stroke="#a30b0b" stroke-width="3" stroke-linecap="round"/><path d="M230.85768,163.08826c3.00777,0.71637 7.16633,3.35829 7.16633,3.35829" data-paper-data="{&quot;origPos&quot;:null,&quot;index&quot;:null,&quot;origRot&quot;:0}" fill="none" stroke="#a30b0b" stroke-width="2" stroke-linecap="round"/><path d="M243.05768,166.24656c0,0 4.15857,-2.64193 7.16633,-3.35829" data-paper-data="{&quot;origPos&quot;:null,&quot;index&quot;:null,&quot;origRot&quot;:0}" fill="none" stroke="#a30b0b" stroke-width="2" stroke-linecap="round"/></g><path d="" data-paper-data="{&quot;origPos&quot;:null}" fill="#ff5e87" stroke="none" stroke-width="0.5" stroke-linecap="butt"/><path d="" data-paper-data="{&quot;origPos&quot;:null}" fill="#a20b7b" stroke="none" stroke-width="0.5" stroke-linecap="butt"/><path d="" data-paper-data="{&quot;origPos&quot;:null}" fill="#fff3d5" stroke="none" stroke-width="0.5" stroke-linecap="butt"/><path d="M1,357v-360h476.85492v360z" data-paper-data="{&quot;origPos&quot;:null}" fill="none" stroke="none" stroke-width="NaN" stroke-linecap="butt"/></g></g></svg>