<svg version="1.1" xmlns="http://www.w3.org/2000/svg" xmlns:xlink="http://www.w3.org/1999/xlink" width="38.10395" height="52.86807" viewBox="0,0,38.10395,52.86807"><g transform="translate(-239.95664,-127.18593)"><g data-paper-data="{&quot;isPaintingLayer&quot;:true}" fill="#ffffff" stroke="none" stroke-miterlimit="10" stroke-dasharray="" stroke-dashoffset="0" style="mix-blend-mode: normal"><path d="M271.07601,175.179c0,2.7 -2.25,4.875 -4.95,4.875c-2.625,0 -4.875,-2.175 -4.875,-4.875v-7.4h-14.55c-6.3,0 -8.525,-5.525 -5.225,-10.1l19.125,-27.725c3.3,-4.65 10.475,-3.15 10.475,2.325zM250.60101,159.354h10.65v-15.525z" data-paper-data="{&quot;origPos&quot;:null}" fill-rule="evenodd" stroke-width="1" stroke-linecap="round" stroke-linejoin="round"/><path d="M269.72726,163.72651c0,-2.30119 1.86548,-4.16666 4.16666,-4.16666c2.30118,0 4.16667,1.86548 4.16667,4.16666c0,2.30119 -1.86548,4.16667 -4.16667,4.16667c-2.30118,0 -4.16666,-1.86549 -4.16666,-4.16667z" data-paper-data="{&quot;origPos&quot;:null}" fill-rule="nonzero" stroke-width="0" stroke-linecap="butt" stroke-linejoin="miter"/><path d="M264.89392,167.89318v-8.33334h9v8.33334z" data-paper-data="{&quot;origPos&quot;:null}" fill-rule="nonzero" stroke-width="0" stroke-linecap="butt" stroke-linejoin="miter"/></g></g></svg>