<svg version="1.1" xmlns="http://www.w3.org/2000/svg" xmlns:xlink="http://www.w3.org/1999/xlink" width="528" height="399" viewBox="0,0,528,399"><g transform="translate(44,3)"><g data-paper-data="{&quot;isPaintingLayer&quot;:true}" fill-rule="nonzero" stroke="none" stroke-linecap="butt" stroke-linejoin="miter" stroke-miterlimit="10" stroke-dasharray="" stroke-dashoffset="0" style="mix-blend-mode: normal"><g><path d="M85.12233,322.73105l7.17272,-34.46491h6.45545l6.63476,34.46491z" data-paper-data="{&quot;origPos&quot;:null}" fill="#ff8c26" stroke-width="NaN"/><path d="M84.7637,322.73105l1.64193,-6.09681h17.87878l1.45949,6.09681z" data-paper-data="{&quot;origPos&quot;:null}" fill="#ffffff" stroke-width="0"/><path d="M87.52519,310.89606l1.26458,-6.09681h13.16817l1.13204,6.09681z" data-paper-data="{&quot;origPos&quot;:null}" fill="#ffffff" stroke-width="0"/><path d="M89.96392,299.34799l1.25908,-6.09681h8.51068l1.16864,6.09681z" data-paper-data="{&quot;origPos&quot;:null}" fill="#ffffff" stroke-width="0"/><path d="M81.73547,325.71666v-3.5236h27.16667v3.5236z" data-paper-data="{&quot;origPos&quot;:null}" fill="#ff9e26" stroke-width="0"/></g><path d="M-44,396v-399h528v399z" data-paper-data="{&quot;origPos&quot;:null}" fill="none" stroke-width="NaN"/><g data-paper-data="{&quot;origPos&quot;:null}"><path d="M178.12233,323.73105l7.17272,-34.46491h6.45545l6.63476,34.46491z" data-paper-data="{&quot;origPos&quot;:null}" fill="#ff8c26" stroke-width="NaN"/><path d="M177.7637,323.73105l1.64193,-6.09681h17.87878l1.45949,6.09681z" data-paper-data="{&quot;origPos&quot;:null}" fill="#ffffff" stroke-width="0"/><path d="M180.52519,311.89606l1.26458,-6.09681h13.16817l1.13204,6.09681z" data-paper-data="{&quot;origPos&quot;:null}" fill="#ffffff" stroke-width="0"/><path d="M182.96392,300.34799l1.25908,-6.09681h8.51068l1.16864,6.09681z" data-paper-data="{&quot;origPos&quot;:null}" fill="#ffffff" stroke-width="0"/><path d="M174.73547,326.71666v-3.5236h27.16667v3.5236z" data-paper-data="{&quot;origPos&quot;:null}" fill="#ff9e26" stroke-width="0"/></g><text transform="translate(119,201.86023) scale(0.64927,0.64927)" font-size="40" xml:space="preserve" fill="#ffffff" fill-rule="nonzero" stroke="none" stroke-width="1" stroke-linecap="butt" stroke-linejoin="miter" stroke-miterlimit="10" stroke-dasharray="" stroke-dashoffset="0" font-family="Malgun Gothic" font-weight="normal" text-anchor="start" style="mix-blend-mode: normal"><tspan x="0" dy="0">Welcome!</tspan></text></g></g></svg>